<svg width="20" height="16" viewBox="0 0 20 16" fill="none" xmlns="http://www.w3.org/2000/svg">
<path d="M1.66666 3.65918L8.47076 8.42205C9.02173 8.80773 9.29722 9.00057 9.59688 9.07527C9.86157 9.14125 10.1384 9.14125 10.4031 9.07527C10.7028 9.00057 10.9782 8.80773 11.5292 8.42205L18.3333 3.65918M5.66666 14.4925H14.3333C15.7335 14.4925 16.4335 14.4925 16.9683 14.22C17.4387 13.9803 17.8212 13.5979 18.0608 13.1275C18.3333 12.5927 18.3333 11.8926 18.3333 10.4925V5.15918C18.3333 3.75905 18.3333 3.05898 18.0608 2.5242C17.8212 2.0538 17.4387 1.67135 16.9683 1.43166C16.4335 1.15918 15.7335 1.15918 14.3333 1.15918H5.66666C4.26653 1.15918 3.56646 1.15918 3.03168 1.43166C2.56128 1.67135 2.17882 2.0538 1.93914 2.5242C1.66666 3.05898 1.66666 3.75905 1.66666 5.15918V10.4925C1.66666 11.8926 1.66666 12.5927 1.93914 13.1275C2.17882 13.5979 2.56128 13.9803 3.03168 14.22C3.56646 14.4925 4.26653 14.4925 5.66666 14.4925Z" stroke="white" stroke-width="2" stroke-linecap="round" stroke-linejoin="round"/>
</svg>
