<svg width="118" height="36" viewBox="0 0 118 36" fill="none" xmlns="http://www.w3.org/2000/svg">
<rect x="0.5" y="0.5" width="117" height="35" rx="15.5" fill="#171C17"/>
<rect x="0.5" y="0.5" width="117" height="35" rx="15.5" stroke="#171C17"/>
<path d="M18.2727 23.692C17.206 23.692 16.278 23.4467 15.4887 22.956C14.71 22.4653 14.102 21.788 13.6647 20.924C13.2274 20.06 13.0087 19.0627 13.0087 17.932C13.0087 16.8333 13.222 15.8467 13.6487 14.972C14.0754 14.0867 14.6994 13.388 15.5207 12.876C16.3527 12.364 17.3554 12.108 18.5287 12.108C19.8194 12.108 20.886 12.4173 21.7287 13.036C22.582 13.6547 23.1367 14.508 23.3927 15.596H21.4727C21.3127 14.9987 20.9767 14.5293 20.4647 14.188C19.9634 13.836 19.318 13.66 18.5287 13.66C17.718 13.66 17.03 13.8413 16.4647 14.204C15.8994 14.5667 15.4727 15.068 15.1847 15.708C14.8967 16.348 14.7527 17.0947 14.7527 17.948C14.7527 18.7907 14.8967 19.532 15.1847 20.172C15.4727 20.812 15.8887 21.308 16.4327 21.66C16.9874 22.0013 17.638 22.172 18.3847 22.172C19.462 22.172 20.278 21.8787 20.8327 21.292C21.398 20.6947 21.7394 19.8893 21.8567 18.876H18.0487V17.484H23.6007V23.5H22.0327L21.9047 21.836C21.5207 22.4333 21.046 22.892 20.4807 23.212C19.9154 23.532 19.1794 23.692 18.2727 23.692ZM29.0686 23.692C28.2899 23.692 27.6019 23.516 27.0046 23.164C26.4072 22.812 25.9379 22.3213 25.5966 21.692C25.2659 21.0627 25.1006 20.3427 25.1006 19.532C25.1006 18.6893 25.2659 17.9587 25.5966 17.34C25.9272 16.7213 26.3912 16.2413 26.9886 15.9C27.5966 15.548 28.2952 15.372 29.0846 15.372C29.8526 15.372 30.5246 15.5427 31.1006 15.884C31.6766 16.2147 32.1246 16.668 32.4446 17.244C32.7752 17.82 32.9406 18.476 32.9406 19.212C32.9406 19.3613 32.9352 19.4893 32.9246 19.596C32.9246 19.7027 32.9139 19.8307 32.8926 19.98H26.7966C26.8286 20.428 26.9406 20.828 27.1326 21.18C27.3246 21.5213 27.5859 21.7933 27.9166 21.996C28.2472 22.188 28.6259 22.284 29.0526 22.284C29.5112 22.284 29.9006 22.1827 30.2206 21.98C30.5512 21.7667 30.7966 21.468 30.9566 21.084H32.7166C32.5779 21.564 32.3432 22.0013 32.0126 22.396C31.6926 22.7907 31.2872 23.1053 30.7966 23.34C30.3059 23.5747 29.7299 23.692 29.0686 23.692ZM26.8126 18.78H31.2126C31.1912 18.1613 30.9726 17.676 30.5566 17.324C30.1406 16.9613 29.6339 16.78 29.0366 16.78C28.5032 16.78 28.0179 16.9453 27.5806 17.276C27.1432 17.6067 26.8872 18.108 26.8126 18.78ZM37.2902 23.5C36.5009 23.5 35.8929 23.308 35.4662 22.924C35.0395 22.54 34.8262 21.9107 34.8262 21.036V16.988H33.6262V15.564H34.8262V13.644H36.5222V15.564H38.5382V16.988H36.5222V21.036C36.5222 21.4413 36.6129 21.7133 36.7942 21.852C36.9755 21.9907 37.2582 22.06 37.6422 22.06H38.5382V23.5H37.2902ZM43.6109 23.5L47.7229 12.3H49.5789L53.6909 23.5H51.8829L50.9389 20.78H46.3469L45.3869 23.5H43.6109ZM46.8429 19.42H50.4429L48.6349 14.316L46.8429 19.42ZM54.9823 27.02V15.564H56.6143L56.6783 16.764C56.9556 16.3587 57.329 16.028 57.7983 15.772C58.2676 15.5053 58.8223 15.372 59.4623 15.372C60.2516 15.372 60.929 15.5587 61.4943 15.932C62.0596 16.2947 62.497 16.7907 62.8063 17.42C63.1156 18.0387 63.2703 18.7373 63.2703 19.516C63.2703 20.2947 63.1156 21.004 62.8063 21.644C62.497 22.2733 62.0543 22.7747 61.4783 23.148C60.913 23.5107 60.241 23.692 59.4623 23.692C58.801 23.692 58.2303 23.5587 57.7503 23.292C57.281 23.0147 56.9236 22.6787 56.6783 22.284V27.02H54.9823ZM59.1103 22.204C59.601 22.204 60.0276 22.0867 60.3903 21.852C60.753 21.6173 61.0356 21.2973 61.2383 20.892C61.441 20.4867 61.5423 20.028 61.5423 19.516C61.5423 18.9827 61.4356 18.5187 61.2223 18.124C61.0196 17.7187 60.737 17.404 60.3743 17.18C60.0116 16.956 59.5903 16.844 59.1103 16.844C58.641 16.844 58.225 16.9613 57.8623 17.196C57.4996 17.42 57.2116 17.7347 56.9983 18.14C56.7956 18.5347 56.6943 18.9987 56.6943 19.532C56.6943 20.0227 56.7956 20.476 56.9983 20.892C57.201 21.2973 57.4836 21.6173 57.8463 21.852C58.209 22.0867 58.6303 22.204 59.1103 22.204ZM64.7948 27.02V15.564H66.4268L66.4908 16.764C66.7681 16.3587 67.1415 16.028 67.6108 15.772C68.0801 15.5053 68.6348 15.372 69.2748 15.372C70.0641 15.372 70.7415 15.5587 71.3068 15.932C71.8721 16.2947 72.3095 16.7907 72.6188 17.42C72.9281 18.0387 73.0828 18.7373 73.0828 19.516C73.0828 20.2947 72.9281 21.004 72.6188 21.644C72.3095 22.2733 71.8668 22.7747 71.2908 23.148C70.7255 23.5107 70.0535 23.692 69.2748 23.692C68.6135 23.692 68.0428 23.5587 67.5628 23.292C67.0935 23.0147 66.7361 22.6787 66.4908 22.284V27.02H64.7948ZM68.9228 22.204C69.4135 22.204 69.8401 22.0867 70.2028 21.852C70.5655 21.6173 70.8481 21.2973 71.0508 20.892C71.2535 20.4867 71.3548 20.028 71.3548 19.516C71.3548 18.9827 71.2481 18.5187 71.0348 18.124C70.8321 17.7187 70.5495 17.404 70.1868 17.18C69.8241 16.956 69.4028 16.844 68.9228 16.844C68.4535 16.844 68.0375 16.9613 67.6748 17.196C67.3121 17.42 67.0241 17.7347 66.8108 18.14C66.6081 18.5347 66.5068 18.9987 66.5068 19.532C66.5068 20.0227 66.6081 20.476 66.8108 20.892C67.0135 21.2973 67.2961 21.6173 67.6588 21.852C68.0215 22.0867 68.4428 22.204 68.9228 22.204Z" fill="white"/>
<path d="M88 24L100 12M100 12H92M100 12V20" stroke="#FAFFFC" stroke-width="2" stroke-linecap="round" stroke-linejoin="round"/>
</svg>
