<svg width="24" height="24" viewBox="0 0 24 24" fill="none" xmlns="http://www.w3.org/2000/svg">
<g clip-path="url(#clip0_3472_19014)">
<path fill-rule="evenodd" clip-rule="evenodd" d="M9.59866 4.65956C9.53376 4.27446 9.48486 3.89373 9.45328 3.51296C9.40568 2.94181 9.43511 2.36629 9.41823 1.79514C9.41088 1.55283 9.38188 0.921106 9.39357 0.830241C9.49958 0.0384138 10.1387 -0.0827548 10.3256 -0.104389C10.416 -0.11737 11.3446 -0.22117 11.5449 0.808638C11.7907 2.06777 11.8694 3.33554 11.7825 4.57737C11.9854 5.63314 12.3324 6.68456 12.7906 7.63648C14.614 11.4225 18.0885 11.7903 21.8529 11.7557C22.4319 11.7471 22.9126 12.2014 22.9429 12.7769C22.9732 13.3567 22.5422 13.8586 21.9659 13.9105C19.8617 14.1139 16.1284 15.8014 14.8377 17.5581C14.5677 17.9259 14.4106 18.813 14.2029 19.6827C13.913 20.8899 13.5682 22.0841 13.1818 22.586C13.1238 22.6639 12.4189 23.4601 12.2087 23.5769C11.7033 23.8538 11.2987 23.6937 11.069 23.5466C10.8392 23.3995 10.5791 23.1096 10.4753 22.6293C10.3667 22.1274 10.4584 21.0975 10.4415 20.8769C10.3801 20.0764 10.22 18.5057 9.89334 17.1557C9.71723 16.4288 9.52944 15.7581 9.21876 15.4249C8.06867 14.1918 6.22972 14.3735 4.68112 14.5769C4.50328 14.5985 4.32545 14.6245 4.14804 14.6461C3.51761 14.8322 2.84822 14.9706 2.14077 15.0528C1.07245 15.1783 0.896788 14.1961 0.887269 14.1312C0.867365 13.9884 0.793367 13.2528 1.59861 12.9586C1.68644 12.9283 2.33462 12.7855 2.58429 12.7293C2.93217 12.6514 3.28394 12.5908 3.63702 12.5346C7.28418 11.4009 9.26506 8.21629 9.59866 4.65956ZM10.8504 8.59277C12.2273 11.4399 14.3167 12.8158 16.7935 13.4389C15.247 14.248 13.8399 15.2606 13.0944 16.2774C12.8114 16.6625 12.5518 17.437 12.3177 18.3067C12.1909 17.4976 12.0196 16.6365 11.7933 15.9009C11.5358 15.0615 11.1892 14.3649 10.8024 13.9495C10.0556 13.149 9.11836 12.7033 8.11062 12.4827C9.31697 11.4139 10.2317 10.0812 10.8504 8.59277Z" fill="#29864D"/>
</g>
<defs>
<clipPath id="clip0_3472_19014">
<rect width="23.0769" height="24" fill="white"/>
</clipPath>
</defs>
</svg>
