<svg width="22" height="30" viewBox="0 0 22 30" fill="none" xmlns="http://www.w3.org/2000/svg">
<path d="M11 22.3332H11.0133M5.93332 28.3332H16.0667C17.5601 28.3332 18.3069 28.3332 18.8773 28.0425C19.3791 27.7869 19.787 27.3789 20.0427 26.8771C20.3333 26.3067 20.3333 25.56 20.3333 24.0665V5.93317C20.3333 4.4397 20.3333 3.69296 20.0427 3.12253C19.787 2.62076 19.3791 2.21282 18.8773 1.95715C18.3069 1.6665 17.5601 1.6665 16.0667 1.6665H5.93332C4.43985 1.6665 3.69311 1.6665 3.12268 1.95715C2.62092 2.21282 2.21297 2.62076 1.95731 3.12253C1.66666 3.69296 1.66666 4.4397 1.66666 5.93317V24.0665C1.66666 25.56 1.66666 26.3067 1.95731 26.8771C2.21297 27.3789 2.62092 27.7869 3.12268 28.0425C3.69311 28.3332 4.43985 28.3332 5.93332 28.3332ZM11.6667 22.3332C11.6667 22.7014 11.3682 22.9998 11 22.9998C10.6318 22.9998 10.3333 22.7014 10.3333 22.3332C10.3333 21.965 10.6318 21.6665 11 21.6665C11.3682 21.6665 11.6667 21.965 11.6667 22.3332Z" stroke="#FAFFFC" stroke-width="2" stroke-linecap="round" stroke-linejoin="round"/>
</svg>
