<svg width="18" height="19" viewBox="0 0 18 19" fill="none" xmlns="http://www.w3.org/2000/svg">
<path d="M5.98356 7.20397C6.56356 8.41198 7.35422 9.54418 8.35553 10.5455C9.35685 11.5468 10.4891 12.3375 11.6971 12.9175C11.801 12.9674 11.8529 12.9923 11.9187 13.0115C12.1523 13.0796 12.4392 13.0307 12.637 12.889C12.6927 12.8491 12.7403 12.8015 12.8356 12.7062C13.1269 12.4149 13.2726 12.2692 13.4191 12.174C13.9715 11.8148 14.6837 11.8148 15.2361 12.174C15.3825 12.2692 15.5282 12.4149 15.8196 12.7062L15.9819 12.8686C16.4248 13.3115 16.6462 13.5329 16.7665 13.7707C17.0058 14.2437 17.0058 14.8023 16.7665 15.2752C16.6462 15.513 16.4248 15.7345 15.9819 16.1773L15.8506 16.3087C15.4092 16.7501 15.1886 16.9707 14.8885 17.1393C14.5556 17.3263 14.0385 17.4608 13.6567 17.4596C13.3126 17.4586 13.0774 17.3918 12.607 17.2583C10.0792 16.5409 7.69387 15.1871 5.70388 13.1971C3.7139 11.2072 2.36017 8.82186 1.6427 6.29403C1.50919 5.82366 1.44244 5.58848 1.44141 5.24435C1.44028 4.8625 1.57475 4.34543 1.76176 4.0125C1.9303 3.71248 2.15098 3.4918 2.59233 3.05045L2.72369 2.91909C3.16656 2.47622 3.388 2.25478 3.62581 2.1345C4.09878 1.89527 4.65734 1.89527 5.1303 2.1345C5.36812 2.25478 5.58955 2.47622 6.03242 2.91909L6.19481 3.08148C6.48615 3.37282 6.63182 3.51849 6.72706 3.66497C7.08622 4.21738 7.08622 4.92953 6.72706 5.48194C6.63182 5.62842 6.48615 5.77409 6.19481 6.06542C6.09955 6.16069 6.05192 6.20832 6.01206 6.26399C5.87038 6.46185 5.82146 6.74873 5.88957 6.98236C5.90873 7.0481 5.93367 7.10006 5.98356 7.20397Z" stroke="white" stroke-width="2" stroke-linecap="round" stroke-linejoin="round"/>
</svg>
