<svg width="29" height="24" viewBox="0 0 29 24" fill="none" xmlns="http://www.w3.org/2000/svg">
<path d="M12 6.66683V5.3335M12 12.6668V11.3335M12 18.6668V17.3335M5.6 1.3335H23.7333C25.2268 1.3335 25.9735 1.3335 26.544 1.62415C27.0457 1.87981 27.4537 2.28776 27.7093 2.78952C28 3.35995 28 4.10669 28 5.60016V7.3335C25.4227 7.3335 23.3333 9.42283 23.3333 12.0002C23.3333 14.5775 25.4227 16.6668 28 16.6668V18.4002C28 19.8936 28 20.6404 27.7093 21.2108C27.4537 21.7126 27.0457 22.1205 26.544 22.3762C25.9735 22.6668 25.2268 22.6668 23.7333 22.6668H5.6C4.10652 22.6668 3.35978 22.6668 2.78935 22.3762C2.28759 22.1205 1.87964 21.7126 1.62398 21.2108C1.33333 20.6404 1.33333 19.8936 1.33333 18.4002V16.6668C3.91066 16.6668 6 14.5775 6 12.0002C6 9.42283 3.91066 7.3335 1.33333 7.3335V5.60016C1.33333 4.10669 1.33333 3.35995 1.62398 2.78952C1.87964 2.28776 2.28759 1.87981 2.78935 1.62415C3.35978 1.3335 4.10652 1.3335 5.6 1.3335Z" stroke="#FAFFFC" stroke-width="2" stroke-linecap="round" stroke-linejoin="round"/>
</svg>
