<svg width="32" height="33" viewBox="0 0 32 33" fill="none" xmlns="http://www.w3.org/2000/svg">
<rect y="0.428711" width="32" height="32" rx="6" fill="url(#paint0_radial_3564_727)"/>
<rect y="0.428711" width="32" height="32" rx="6" fill="url(#paint1_radial_3564_727)"/>
<rect y="0.428711" width="32" height="32" rx="6" fill="url(#paint2_radial_3564_727)"/>
<path d="M24 10.1429C24 11.0896 23.2325 11.8571 22.2857 11.8571C21.3389 11.8571 20.5714 11.0896 20.5714 10.1429C20.5714 9.19608 21.3389 8.42857 22.2857 8.42857C23.2325 8.42857 24 9.19608 24 10.1429Z" fill="white"/>
<path fill-rule="evenodd" clip-rule="evenodd" d="M16 22.1429C19.1559 22.1429 21.7143 19.5845 21.7143 16.4286C21.7143 13.2727 19.1559 10.7143 16 10.7143C12.8441 10.7143 10.2857 13.2727 10.2857 16.4286C10.2857 19.5845 12.8441 22.1429 16 22.1429ZM16 19.8571C17.8935 19.8571 19.4286 18.3221 19.4286 16.4286C19.4286 14.535 17.8935 13 16 13C14.1065 13 12.5714 14.535 12.5714 16.4286C12.5714 18.3221 14.1065 19.8571 16 19.8571Z" fill="white"/>
<path fill-rule="evenodd" clip-rule="evenodd" d="M4.57143 15.9714C4.57143 12.1311 4.57143 10.2109 5.31881 8.74407C5.97623 7.45381 7.02524 6.4048 8.31549 5.74738C9.78232 5 11.7025 5 15.5429 5H16.4571C20.2975 5 22.2177 5 23.6845 5.74738C24.9748 6.4048 26.0238 7.45381 26.6812 8.74407C27.4286 10.2109 27.4286 12.1311 27.4286 15.9714V16.8857C27.4286 20.7261 27.4286 22.6463 26.6812 24.1131C26.0238 25.4033 24.9748 26.4523 23.6845 27.1098C22.2177 27.8571 20.2975 27.8571 16.4571 27.8571H15.5429C11.7025 27.8571 9.78232 27.8571 8.31549 27.1098C7.02524 26.4523 5.97623 25.4033 5.31881 24.1131C4.57143 22.6463 4.57143 20.7261 4.57143 16.8857V15.9714ZM15.5429 7.28571H16.4571C18.415 7.28571 19.746 7.28749 20.7748 7.37155C21.7769 7.45342 22.2893 7.60182 22.6468 7.78397C23.507 8.22225 24.2063 8.92159 24.6446 9.78176C24.8267 10.1392 24.9751 10.6517 25.057 11.6538C25.1411 12.6826 25.1429 14.0135 25.1429 15.9714V16.8857C25.1429 18.8436 25.1411 20.1746 25.057 21.2033C24.9751 22.2054 24.8267 22.7179 24.6446 23.0754C24.2063 23.9356 23.507 24.6349 22.6468 25.0732C22.2893 25.2553 21.7769 25.4037 20.7748 25.4856C19.746 25.5697 18.415 25.5714 16.4571 25.5714H15.5429C13.585 25.5714 12.254 25.5697 11.2252 25.4856C10.2231 25.4037 9.71067 25.2553 9.35318 25.0732C8.49301 24.6349 7.79367 23.9356 7.3554 23.0754C7.17325 22.7179 7.02485 22.2054 6.94297 21.2033C6.85892 20.1746 6.85714 18.8436 6.85714 16.8857V15.9714C6.85714 14.0135 6.85892 12.6826 6.94297 11.6538C7.02485 10.6517 7.17325 10.1392 7.3554 9.78176C7.79367 8.92159 8.49301 8.22225 9.35318 7.78397C9.71067 7.60182 10.2231 7.45342 11.2252 7.37155C12.254 7.28749 13.585 7.28571 15.5429 7.28571Z" fill="white"/>
<defs>
<radialGradient id="paint0_radial_3564_727" cx="0" cy="0" r="1" gradientUnits="userSpaceOnUse" gradientTransform="translate(11.4286 24.4287) rotate(-55.3758) scale(29.1653)">
<stop stop-color="#B13589"/>
<stop offset="0.79309" stop-color="#C62F94"/>
<stop offset="1" stop-color="#8A3AC8"/>
</radialGradient>
<radialGradient id="paint1_radial_3564_727" cx="0" cy="0" r="1" gradientUnits="userSpaceOnUse" gradientTransform="translate(10.2857 33.5716) rotate(-65.1363) scale(25.822)">
<stop stop-color="#E0E8B7"/>
<stop offset="0.444662" stop-color="#FB8A2E"/>
<stop offset="0.71474" stop-color="#E2425C"/>
<stop offset="1" stop-color="#E2425C" stop-opacity="0"/>
</radialGradient>
<radialGradient id="paint2_radial_3564_727" cx="0" cy="0" r="1" gradientUnits="userSpaceOnUse" gradientTransform="translate(-1.71428 1.57157) rotate(-8.1301) scale(44.4467 9.50669)">
<stop offset="0.156701" stop-color="#406ADC"/>
<stop offset="0.467799" stop-color="#6A45BE"/>
<stop offset="1" stop-color="#6A45BE" stop-opacity="0"/>
</radialGradient>
</defs>
</svg>
