<svg width="32" height="33" viewBox="0 0 32 33" fill="none" xmlns="http://www.w3.org/2000/svg">
<g clip-path="url(#clip0_3564_678)">
<path d="M32 16.8262C32 7.98961 24.8366 0.826172 16 0.826172C7.16344 0.826172 0 7.98961 0 16.8262C0 24.8121 5.85094 31.4315 13.5 32.6318V21.4512H9.4375V16.8262H13.5V13.3012C13.5 9.29117 15.8888 7.07617 19.5434 7.07617C21.2934 7.07617 23.125 7.38867 23.125 7.38867V11.3262H21.1075C19.12 11.3262 18.5 12.5596 18.5 13.8262V16.8262H22.9375L22.2281 21.4512H18.5V32.6318C26.1491 31.4315 32 24.8121 32 16.8262Z" fill="#1877F2"/>
<path d="M22.2281 21.4512L22.9375 16.8262H18.5V13.8262C18.5 12.5609 19.12 11.3262 21.1075 11.3262H23.125V7.38867C23.125 7.38867 21.2941 7.07617 19.5434 7.07617C15.8888 7.07617 13.5 9.29117 13.5 13.3012V16.8262H9.4375V21.4512H13.5V32.6318C15.1566 32.891 16.8434 32.891 18.5 32.6318V21.4512H22.2281Z" fill="white"/>
</g>
<defs>
<clipPath id="clip0_3564_678">
<rect width="32" height="32" fill="white" transform="translate(0 0.826172)"/>
</clipPath>
</defs>
</svg>
