<svg width="32" height="33" viewBox="0 0 32 33" fill="none" xmlns="http://www.w3.org/2000/svg">
<path d="M22.902 12.3778C24.9598 13.854 27.4807 14.7226 30.2034 14.7226V9.46464C29.6881 9.46475 29.1741 9.41083 28.67 9.30365V13.4424C25.9475 13.4424 23.427 12.5738 21.3686 11.0977V21.8277C21.3686 27.1953 17.0327 31.5464 11.6845 31.5464C9.68889 31.5464 7.83409 30.9409 6.2933 29.9026C8.05185 31.7071 10.5043 32.8265 13.2175 32.8265C18.5661 32.8265 22.9022 28.4754 22.9022 23.1075V12.3778H22.902ZM24.7935 7.07316C23.7419 5.92013 23.0514 4.43006 22.902 2.78273V2.10645H21.4489C21.8146 4.20021 23.0622 5.98899 24.7935 7.07316ZM9.67609 25.7836C9.08852 25.0104 8.771 24.0646 8.77242 23.0922C8.77242 20.6372 10.7556 18.6467 13.2024 18.6467C13.6584 18.6466 14.1116 18.7166 14.5462 18.855V13.4795C14.0383 13.4097 13.5258 13.38 13.0135 13.3909V17.5749C12.5786 17.4365 12.1251 17.3662 11.669 17.3667C9.22229 17.3667 7.23919 19.357 7.23919 21.8123C7.23919 23.5484 8.23047 25.0514 9.67609 25.7836Z" fill="#FF004F"/>
<path d="M21.3686 11.0976C23.427 12.5737 25.9475 13.4423 28.67 13.4423V9.30354C27.1503 8.97868 25.805 8.1817 24.7935 7.07316C23.0621 5.98888 21.8147 4.2001 21.4489 2.10645H17.6321V23.1073C17.6235 25.5556 15.6437 27.538 13.2022 27.538C11.7634 27.538 10.4853 26.8497 9.67577 25.7836C8.23025 25.0514 7.23897 23.5482 7.23897 21.8124C7.23897 19.3573 9.22207 17.3668 11.6688 17.3668C12.1376 17.3668 12.5894 17.44 13.0133 17.575V13.391C7.75895 13.5 3.5332 17.8085 3.5332 23.1074C3.5332 25.7526 4.58551 28.1506 6.29342 29.9027C7.8342 30.9409 9.689 31.5465 11.6846 31.5465C17.0329 31.5465 21.3687 27.1952 21.3687 21.8277V11.0976H21.3686Z" fill="black"/>
<path d="M28.6701 9.30324V8.18415C27.2997 8.18624 25.9562 7.80109 24.7935 7.07275C25.8228 8.20359 27.1781 8.98333 28.6701 9.30324ZM21.4489 2.10615C21.414 1.90605 21.3872 1.70464 21.3686 1.50246V0.826172H16.0987V21.8273C16.0903 24.2752 14.1106 26.2576 11.6688 26.2576C10.952 26.2576 10.2752 26.0868 9.6758 25.7834C10.4853 26.8494 11.7635 27.5376 13.2022 27.5376C15.6435 27.5376 17.6236 25.5554 17.6321 23.1071V2.10615H21.4489ZM13.0135 13.3907V12.1994C12.5732 12.139 12.1292 12.1086 11.6847 12.1089C6.33589 12.1088 2 16.46 2 21.8273C2 25.1922 3.70408 28.1577 6.29356 29.9022C4.58565 28.1502 3.53334 25.7521 3.53334 23.107C3.53334 17.8082 7.75898 13.4997 13.0135 13.3907Z" fill="#00F2EA"/>
</svg>
