<svg width="32" height="33" viewBox="0 0 32 33" fill="none" xmlns="http://www.w3.org/2000/svg">
<path d="M10.0634 29.8269C22.1389 29.8269 28.7437 19.8224 28.7437 11.1465C28.7437 10.8624 28.7437 10.5795 28.7245 10.2979C30.0094 9.36851 31.1185 8.21775 32 6.8995C30.8019 7.4307 29.5307 7.77891 28.2291 7.93246C29.5998 7.11205 30.6255 5.8215 31.1155 4.3011C29.8268 5.06591 28.4168 5.60487 26.9466 5.8947C25.9567 4.84214 24.6475 4.14515 23.2216 3.91161C21.7957 3.67807 20.3326 3.92099 19.0586 4.60277C17.7847 5.28456 16.771 6.3672 16.1743 7.68316C15.5777 8.99913 15.4314 10.4751 15.7581 11.8825C13.1479 11.7516 10.5943 11.0732 8.26327 9.89151C5.9322 8.70976 3.87569 7.05105 2.2272 5.02302C1.38764 6.46835 1.1305 8.17932 1.50813 9.80758C1.88577 11.4358 2.86979 12.859 4.25984 13.7872C3.21498 13.7566 2.19286 13.4747 1.28 12.9654V13.0486C1.28041 14.5644 1.80513 16.0334 2.76516 17.2064C3.72519 18.3795 5.06141 19.1843 6.5472 19.4845C5.58064 19.7481 4.5665 19.7866 3.58272 19.5971C4.00242 20.9015 4.81924 22.0422 5.91899 22.8597C7.01873 23.6772 8.34644 24.1305 9.71648 24.1565C8.35525 25.2264 6.79642 26.0175 5.12917 26.4845C3.46191 26.9514 1.71895 27.085 0 26.8777C3.00244 28.8044 6.4959 29.8264 10.0634 29.8217" fill="white"/>
</svg>
